<svg xmlns="http://www.w3.org/2000/svg" style="display:none">
  <symbol id="icono-panel-left" viewBox="0 0 24 24" fill="none" stroke="currentColor" stroke-width="2" stroke-linecap="round" stroke-linejoin="round">
    <rect width="18" height="18" x="3" y="3" rx="2" />
  <path d="M9 3v18" />
  </symbol>
  <symbol id="icono-house" viewBox="0 0 24 24" fill="none" stroke="currentColor" stroke-width="2" stroke-linecap="round" stroke-linejoin="round">
    <path d="M15 21v-8a1 1 0 0 0-1-1h-4a1 1 0 0 0-1 1v8" />
  <path d="M3 10a2 2 0 0 1 .709-1.528l7-6a2 2 0 0 1 2.582 0l7 6A2 2 0 0 1 21 10v9a2 2 0 0 1-2 2H5a2 2 0 0 1-2-2z" />
  </symbol>
  <symbol id="icono-list-checks" viewBox="0 0 24 24" fill="none" stroke="currentColor" stroke-width="2" stroke-linecap="round" stroke-linejoin="round">
    <path d="M13 5h8" />
  <path d="M13 12h8" />
  <path d="M13 19h8" />
  <path d="m3 17 2 2 4-4" />
  <path d="m3 7 2 2 4-4" />
  </symbol>
  <symbol id="icono-mail" viewBox="0 0 24 24" fill="none" stroke="currentColor" stroke-width="2" stroke-linecap="round" stroke-linejoin="round">
    <path d="m22 7-8.991 5.727a2 2 0 0 1-2.009 0L2 7" />
  <rect x="2" y="4" width="20" height="16" rx="2" />
  </symbol>
  <symbol id="icono-wrench" viewBox="0 0 24 24" fill="none" stroke="currentColor" stroke-width="2" stroke-linecap="round" stroke-linejoin="round">
    <path d="M14.7 6.3a1 1 0 0 0 0 1.4l1.6 1.6a1 1 0 0 0 1.4 0l3.106-3.105c.32-.322.863-.22.983.218a6 6 0 0 1-8.259 7.057l-7.91 7.91a1 1 0 0 1-2.999-3l7.91-7.91a6 6 0 0 1 7.057-8.259c.438.12.54.662.219.984z" />
  </symbol>
  <symbol id="icono-ticket" viewBox="0 0 24 24" fill="none" stroke="currentColor" stroke-width="2" stroke-linecap="round" stroke-linejoin="round">
    <path d="M2 9a3 3 0 0 1 0 6v2a2 2 0 0 0 2 2h16a2 2 0 0 0 2-2v-2a3 3 0 0 1 0-6V7a2 2 0 0 0-2-2H4a2 2 0 0 0-2 2Z" />
  <path d="M13 5v2" />
  <path d="M13 17v2" />
  <path d="M13 11v2" />
  </symbol>
  <symbol id="icono-clock" viewBox="0 0 24 24" fill="none" stroke="currentColor" stroke-width="2" stroke-linecap="round" stroke-linejoin="round">
    <circle cx="12" cy="12" r="10" />
  <path d="M12 6v6l4 2" />
  </symbol>
  <symbol id="icono-history" viewBox="0 0 24 24" fill="none" stroke="currentColor" stroke-width="2" stroke-linecap="round" stroke-linejoin="round">
    <path d="M12 6v6l1.56.78" />
  <path d="M13.227 21.925a10 10 0 1 1 8.767-9.588" />
  <path d="m14 18 4-4 4 4" />
  <path d="M18 22v-8" />
  </symbol>
  <symbol id="icono-bot" viewBox="0 0 24 24" fill="none" stroke="currentColor" stroke-width="2" stroke-linecap="round" stroke-linejoin="round">
    <path d="M12 8V4H8" />
  <rect width="16" height="12" x="4" y="8" rx="2" />
  <path d="M2 14h2" />
  <path d="M20 14h2" />
  <path d="M15 13v2" />
  <path d="M9 13v2" />
  </symbol>
  <symbol id="icono-bar-chart-3" viewBox="0 0 24 24" fill="none" stroke="currentColor" stroke-width="2" stroke-linecap="round" stroke-linejoin="round">
    <path d="M3 3v16a2 2 0 0 0 2 2h16" />
  <path d="M18 17V9" />
  <path d="M13 17V5" />
  <path d="M8 17v-3" />
  </symbol>
  <symbol id="icono-trash-2" viewBox="0 0 24 24" fill="none" stroke="currentColor" stroke-width="2" stroke-linecap="round" stroke-linejoin="round">
    <path d="M10 11v6" />
  <path d="M14 11v6" />
  <path d="M19 6v14a2 2 0 0 1-2 2H7a2 2 0 0 1-2-2V6" />
  <path d="M3 6h18" />
  <path d="M8 6V4a2 2 0 0 1 2-2h4a2 2 0 0 1 2 2v2" />
  </symbol>
  <symbol id="icono-upload" viewBox="0 0 24 24" fill="none" stroke="currentColor" stroke-width="2" stroke-linecap="round" stroke-linejoin="round">
    <path d="M12 3v12" />
  <path d="m17 8-5-5-5 5" />
  <path d="M21 15v4a2 2 0 0 1-2 2H5a2 2 0 0 1-2-2v-4" />
  </symbol>
  <symbol id="icono-shield" viewBox="0 0 24 24" fill="none" stroke="currentColor" stroke-width="2" stroke-linecap="round" stroke-linejoin="round">
    <path d="M20 13c0 5-3.5 7.5-7.66 8.95a1 1 0 0 1-.67-.01C7.5 20.5 4 18 4 13V6a1 1 0 0 1 1-1c2 0 4.5-1.2 6.24-2.72a1.17 1.17 0 0 1 1.52 0C14.51 3.81 17 5 19 5a1 1 0 0 1 1 1z" />
  </symbol>
  <symbol id="icono-camera" viewBox="0 0 24 24" fill="none" stroke="currentColor" stroke-width="2" stroke-linecap="round" stroke-linejoin="round">
    <path d="M13.997 4a2 2 0 0 1 1.76 1.05l.486.9A2 2 0 0 0 18.003 7H20a2 2 0 0 1 2 2v9a2 2 0 0 1-2 2H4a2 2 0 0 1-2-2V9a2 2 0 0 1 2-2h1.997a2 2 0 0 0 1.759-1.048l.489-.904A2 2 0 0 1 10.004 4z" />
  <circle cx="12" cy="13" r="3" />
  </symbol>
  <symbol id="icono-monitor" viewBox="0 0 24 24" fill="none" stroke="currentColor" stroke-width="2" stroke-linecap="round" stroke-linejoin="round">
    <rect width="20" height="14" x="2" y="3" rx="2" />
  <line x1="8" x2="16" y1="21" y2="21" />
  <line x1="12" x2="12" y1="17" y2="21" />
  </symbol>
  <symbol id="icono-sun" viewBox="0 0 24 24" fill="none" stroke="currentColor" stroke-width="2" stroke-linecap="round" stroke-linejoin="round">
    <circle cx="12" cy="12" r="4" />
  <path d="M12 2v2" />
  <path d="M12 20v2" />
  <path d="m4.93 4.93 1.41 1.41" />
  <path d="m17.66 17.66 1.41 1.41" />
  <path d="M2 12h2" />
  <path d="M20 12h2" />
  <path d="m6.34 17.66-1.41 1.41" />
  <path d="m19.07 4.93-1.41 1.41" />
  </symbol>
  <symbol id="icono-moon" viewBox="0 0 24 24" fill="none" stroke="currentColor" stroke-width="2" stroke-linecap="round" stroke-linejoin="round">
    <path d="M20.985 12.486a9 9 0 1 1-9.473-9.472c.405-.022.617.46.402.803a6 6 0 0 0 8.268 8.268c.344-.215.825-.004.803.401" />
  </symbol>
  <symbol id="icono-layout-list" viewBox="0 0 24 24" fill="none" stroke="currentColor" stroke-width="2" stroke-linecap="round" stroke-linejoin="round">
    <rect width="7" height="7" x="3" y="3" rx="1" />
  <rect width="7" height="7" x="3" y="14" rx="1" />
  <path d="M14 4h7" />
  <path d="M14 9h7" />
  <path d="M14 15h7" />
  <path d="M14 20h7" />
  </symbol>
  <symbol id="icono-smartphone" viewBox="0 0 24 24" fill="none" stroke="currentColor" stroke-width="2" stroke-linecap="round" stroke-linejoin="round">
    <rect width="14" height="20" x="5" y="2" rx="2" ry="2" />
  <path d="M12 18h.01" />
  </symbol>
  <symbol id="icono-user" viewBox="0 0 24 24" fill="none" stroke="currentColor" stroke-width="2" stroke-linecap="round" stroke-linejoin="round">
    <path d="M19 21v-2a4 4 0 0 0-4-4H9a4 4 0 0 0-4 4v2" />
    <circle cx="12" cy="7" r="4" />
  </symbol>
  <symbol id="icono-book-open" viewBox="0 0 24 24" fill="none" stroke="currentColor" stroke-width="2" stroke-linecap="round" stroke-linejoin="round">
    <path d="M12 5v16" />
  <path d="M20.001 19A2 2 0 0022 17V5a2 2 0 00-1.999-2L16 3.002A5 5 0 0012 5a5 5 0 00-4-2H4a2 2 0 00-2 2v12a2 2 0 001.999 2H8a5 5 0 014 2 5 5 0 014-2z" />
  </symbol>
  <symbol id="icono-log-out" viewBox="0 0 24 24" fill="none" stroke="currentColor" stroke-width="2" stroke-linecap="round" stroke-linejoin="round">
    <path d="m16 17 5-5-5-5" />
  <path d="M21 12H9" />
  <path d="M9 21H5a2 2 0 0 1-2-2V5a2 2 0 0 1 2-2h4" />
  </symbol>
  <symbol id="icono-settings" viewBox="0 0 24 24" fill="none" stroke="currentColor" stroke-width="2" stroke-linecap="round" stroke-linejoin="round">
    <path d="M9.671 4.136a2.34 2.34 0 0 1 4.659 0 2.34 2.34 0 0 0 3.319 1.915 2.34 2.34 0 0 1 2.33 4.033 2.34 2.34 0 0 0 0 3.831 2.34 2.34 0 0 1-2.33 4.033 2.34 2.34 0 0 0-3.319 1.915 2.34 2.34 0 0 1-4.659 0 2.34 2.34 0 0 0-3.32-1.915 2.34 2.34 0 0 1-2.33-4.033 2.34 2.34 0 0 0 0-3.831A2.34 2.34 0 0 1 6.35 6.051a2.34 2.34 0 0 0 3.319-1.915" />
  <circle cx="12" cy="12" r="3" />
  </symbol>
  <symbol id="icono-search" viewBox="0 0 24 24" fill="none" stroke="currentColor" stroke-width="2" stroke-linecap="round" stroke-linejoin="round">
    <path d="m21 21-4.34-4.34" />
  <circle cx="11" cy="11" r="8" />
  </symbol>
  <symbol id="icono-x" viewBox="0 0 24 24" fill="none" stroke="currentColor" stroke-width="2" stroke-linecap="round" stroke-linejoin="round">
    <path d="M18 6 6 18" />
  <path d="m6 6 12 12" />
  </symbol>
  <symbol id="icono-calendar-days" viewBox="0 0 24 24" fill="none" stroke="currentColor" stroke-width="2" stroke-linecap="round" stroke-linejoin="round">
    <path d="M8 2v3" />
  <path d="M16 2v3" />
  <rect x="3" y="3" width="18" height="18" rx="2" />
  <path d="M3 9h18" />
  <path d="M8 13h.01" />
  <path d="M12 13h.01" />
  <path d="M16 13h.01" />
  <path d="M8 17h.01" />
  <path d="M12 17h.01" />
  <path d="M16 17h.01" />
  </symbol>
  <symbol id="icono-map-pin" viewBox="0 0 24 24" fill="none" stroke="currentColor" stroke-width="2" stroke-linecap="round" stroke-linejoin="round">
    <path d="M20 10c0 4.993-5.539 10.193-7.399 11.799a1 1 0 0 1-1.202 0C9.539 20.193 4 14.993 4 10a8 8 0 0 1 16 0" />
  <circle cx="12" cy="10" r="3" />
  </symbol>
  <symbol id="icono-folder" viewBox="0 0 24 24" fill="none" stroke="currentColor" stroke-width="2" stroke-linecap="round" stroke-linejoin="round">
    <path d="M20 20a2 2 0 0 0 2-2V8a2 2 0 0 0-2-2h-7.9a2 2 0 0 1-1.69-.9L9.6 3.9A2 2 0 0 0 7.93 3H4a2 2 0 0 0-2 2v13a2 2 0 0 0 2 2Z" />
  </symbol>
  <symbol id="icono-flag" viewBox="0 0 24 24" fill="none" stroke="currentColor" stroke-width="2" stroke-linecap="round" stroke-linejoin="round">
    <path d="M4 22V4a1 1 0 0 1 .4-.8A6 6 0 0 1 8 2c3 0 5 2 7.333 2q2 0 3.067-.8A1 1 0 0 1 20 4v10a1 1 0 0 1-.4.8A6 6 0 0 1 16 16c-3 0-5-2-8-2a6 6 0 0 0-4 1.528" />
  </symbol>
  <symbol id="icono-mail-open" viewBox="0 0 24 24" fill="none" stroke="currentColor" stroke-width="2" stroke-linecap="round" stroke-linejoin="round">
    <path d="M21.2 8.4c.5.38.8.97.8 1.6v10a2 2 0 0 1-2 2H4a2 2 0 0 1-2-2V10a2 2 0 0 1 .8-1.6l8-6a2 2 0 0 1 2.4 0l8 6Z" />
  <path d="m22 10-8.97 5.7a1.94 1.94 0 0 1-2.06 0L2 10" />
  </symbol>
  <symbol id="icono-printer" viewBox="0 0 24 24" fill="none" stroke="currentColor" stroke-width="2" stroke-linecap="round" stroke-linejoin="round">
    <path d="M6 18H4a2 2 0 0 1-2-2v-5a2 2 0 0 1 2-2h16a2 2 0 0 1 2 2v5a2 2 0 0 1-2 2h-2" />
  <path d="M6 9V3a1 1 0 0 1 1-1h10a1 1 0 0 1 1 1v6" />
  <rect x="6" y="14" width="12" height="8" rx="1" />
  </symbol>
  <symbol id="icono-shield-check" viewBox="0 0 24 24" fill="none" stroke="currentColor" stroke-width="2" stroke-linecap="round" stroke-linejoin="round">
    <path d="M20 13c0 5-3.5 7.5-7.66 8.95a1 1 0 0 1-.67-.01C7.5 20.5 4 18 4 13V6a1 1 0 0 1 1-1c2 0 4.5-1.2 6.24-2.72a1.17 1.17 0 0 1 1.52 0C14.51 3.81 17 5 19 5a1 1 0 0 1 1 1z" />
  <path d="m9 12 2 2 4-4" />
  </symbol>
  <symbol id="icono-paperclip" viewBox="0 0 24 24" fill="none" stroke="currentColor" stroke-width="2" stroke-linecap="round" stroke-linejoin="round">
    <path d="m16 6-8.414 8.586a2 2 0 0 0 2.829 2.829l8.414-8.586a4 4 0 1 0-5.657-5.657l-8.379 8.551a6 6 0 1 0 8.485 8.485l8.379-8.551" />
  </symbol>
  <symbol id="icono-image" viewBox="0 0 24 24" fill="none" stroke="currentColor" stroke-width="2" stroke-linecap="round" stroke-linejoin="round">
    <rect width="18" height="18" x="3" y="3" rx="2" ry="2" />
  <circle cx="9" cy="9" r="2" />
  <path d="m21 15-3.086-3.086a2 2 0 0 0-2.828 0L6 21" />
  </symbol>
  <symbol id="icono-send" viewBox="0 0 24 24" fill="none" stroke="currentColor" stroke-width="2" stroke-linecap="round" stroke-linejoin="round">
    <path d="M14.536 21.686a.5.5 0 0 0 .937-.024l6.5-19a.496.496 0 0 0-.635-.635l-19 6.5a.5.5 0 0 0-.024.937l7.93 3.18a2 2 0 0 1 1.112 1.11z" />
  <path d="m21.854 2.147-10.94 10.939" />
  </symbol>
  <symbol id="icono-download" viewBox="0 0 24 24" fill="none" stroke="currentColor" stroke-width="2" stroke-linecap="round" stroke-linejoin="round">
    <path d="M12 15V3" />
  <path d="M21 15v4a2 2 0 0 1-2 2H5a2 2 0 0 1-2-2v-4" />
  <path d="m7 10 5 5 5-5" />
  </symbol>
  <symbol id="icono-lock" viewBox="0 0 24 24" fill="none" stroke="currentColor" stroke-width="2" stroke-linecap="round" stroke-linejoin="round">
    <rect width="18" height="11" x="3" y="11" rx="2" ry="2" />
  <path d="M7 11V7a5 5 0 0 1 10 0v4" />
  </symbol>
  <symbol id="icono-pencil" viewBox="0 0 24 24" fill="none" stroke="currentColor" stroke-width="2" stroke-linecap="round" stroke-linejoin="round">
    <path d="M21.174 6.812a1 1 0 0 0-3.986-3.987L3.842 16.174a2 2 0 0 0-.5.83l-1.321 4.352a.5.5 0 0 0 .623.622l4.353-1.32a2 2 0 0 0 .83-.497z" />
  <path d="m15 5 4 4" />
  </symbol>
  <symbol id="icono-triangle-alert" viewBox="0 0 24 24" fill="none" stroke="currentColor" stroke-width="2" stroke-linecap="round" stroke-linejoin="round">
    <path d="m21.73 18-8-14a2 2 0 0 0-3.48 0l-8 14A2 2 0 0 0 4 21h16a2 2 0 0 0 1.73-3" />
  <path d="M12 9v4" />
  <path d="M12 17h.01" />
  </symbol>
  <symbol id="icono-circle-check-big" viewBox="0 0 24 24" fill="none" stroke="currentColor" stroke-width="2" stroke-linecap="round" stroke-linejoin="round">
    <path d="M21.801 10A10 10 0 1 1 17 3.335" />
  <path d="m9 11 3 3L22 4" />
  </symbol>
  <symbol id="icono-check" viewBox="0 0 24 24" fill="none" stroke="currentColor" stroke-width="2" stroke-linecap="round" stroke-linejoin="round">
    <path d="M20 6 9 17l-5-5" />
  </symbol>
  <symbol id="icono-star" viewBox="0 0 24 24" fill="none" stroke="currentColor" stroke-width="2" stroke-linecap="round" stroke-linejoin="round">
    <path d="M11.525 2.295a.53.53 0 0 1 .95 0l2.31 4.679a2.123 2.123 0 0 0 1.595 1.16l5.166.756a.53.53 0 0 1 .294.904l-3.736 3.638a2.123 2.123 0 0 0-.611 1.878l.882 5.14a.53.53 0 0 1-.771.56l-4.618-2.428a2.122 2.122 0 0 0-1.973 0L6.396 21.01a.53.53 0 0 1-.77-.56l.881-5.139a2.122 2.122 0 0 0-.611-1.879L2.16 9.795a.53.53 0 0 1 .294-.906l5.165-.755a2.122 2.122 0 0 0 1.597-1.16z" />
  </symbol>
  <symbol id="icono-notebook-pen" viewBox="0 0 24 24" fill="none" stroke="currentColor" stroke-width="2" stroke-linecap="round" stroke-linejoin="round">
    <path d="M13.4 2H6a2 2 0 0 0-2 2v16a2 2 0 0 0 2 2h12a2 2 0 0 0 2-2v-7.4" />
  <path d="M2 6h4" />
  <path d="M2 10h4" />
  <path d="M2 14h4" />
  <path d="M2 18h4" />
  <path d="M21.378 5.626a1 1 0 1 0-3.004-3.004l-5.01 5.012a2 2 0 0 0-.506.854l-.837 2.87a.5.5 0 0 0 .62.62l2.87-.837a2 2 0 0 0 .854-.506z" />
  </symbol>
  <symbol id="icono-zap" viewBox="0 0 24 24" fill="none" stroke="currentColor" stroke-width="2" stroke-linecap="round" stroke-linejoin="round">
    <path d="M15.914 4a1.5 1.5 0 00-2.474-1.561l-9 9A1.5 1.5 0 005.5 14h4.002a.5.5 0 01.471.666L8.086 20a1.5 1.5 0 002.475 1.56l9-9A1.5 1.5 0 0018.5 10h-3.997a.5.5 0 01-.472-.667z" />
  </symbol>
  <symbol id="icono-sparkles" viewBox="0 0 24 24" fill="none" stroke="currentColor" stroke-width="2" stroke-linecap="round" stroke-linejoin="round">
    <path d="M11.017 2.814a1 1 0 0 1 1.966 0l1.051 5.558a2 2 0 0 0 1.594 1.594l5.558 1.051a1 1 0 0 1 0 1.966l-5.558 1.051a2 2 0 0 0-1.594 1.594l-1.051 5.558a1 1 0 0 1-1.966 0l-1.051-5.558a2 2 0 0 0-1.594-1.594l-5.558-1.051a1 1 0 0 1 0-1.966l5.558-1.051a2 2 0 0 0 1.594-1.594z" />
  <path d="M20 2v4" />
  <path d="M22 4h-4" />
  <circle cx="4" cy="20" r="2" />
  </symbol>
  <symbol id="icono-message-circle" viewBox="0 0 24 24" fill="none" stroke="currentColor" stroke-width="2" stroke-linecap="round" stroke-linejoin="round">
    <path d="M2.992 16.342a2 2 0 0 1 .094 1.167l-1.065 3.29a1 1 0 0 0 1.236 1.168l3.413-.998a2 2 0 0 1 1.099.092 10 10 0 1 0-4.777-4.719" />
  </symbol>
  <symbol id="icono-rotate-ccw" viewBox="0 0 24 24" fill="none" stroke="currentColor" stroke-width="2" stroke-linecap="round" stroke-linejoin="round">
    <path d="M3 12a9 9 0 1 0 9-9 9.75 9.75 0 0 0-6.74 2.74L3 8" />
  <path d="M3 3v5h5" />
  </symbol>
  <symbol id="icono-arrow-left" viewBox="0 0 24 24" fill="none" stroke="currentColor" stroke-width="2" stroke-linecap="round" stroke-linejoin="round">
    <path d="m12 19-7-7 7-7" />
  <path d="M19 12H5" />
  </symbol>
  <symbol id="icono-arrow-right" viewBox="0 0 24 24" fill="none" stroke="currentColor" stroke-width="2" stroke-linecap="round" stroke-linejoin="round">
    <path d="M5 12h14" />
  <path d="m12 5 7 7-7 7" />
  </symbol>
  <symbol id="icono-arrow-up" viewBox="0 0 24 24" fill="none" stroke="currentColor" stroke-width="2" stroke-linecap="round" stroke-linejoin="round">
    <path d="m5 12 7-7 7 7" />
  <path d="M12 19V5" />
  </symbol>
  <symbol id="icono-arrow-down" viewBox="0 0 24 24" fill="none" stroke="currentColor" stroke-width="2" stroke-linecap="round" stroke-linejoin="round">
    <path d="M12 5v14" />
  <path d="m19 12-7 7-7-7" />
  </symbol>
  <symbol id="icono-reply" viewBox="0 0 24 24" fill="none" stroke="currentColor" stroke-width="2" stroke-linecap="round" stroke-linejoin="round">
    <path d="M20 18v-2a4 4 0 0 0-4-4H4" />
  <path d="m9 17-5-5 5-5" />
  </symbol>
  <symbol id="icono-reply-all" viewBox="0 0 24 24" fill="none" stroke="currentColor" stroke-width="2" stroke-linecap="round" stroke-linejoin="round">
    <path d="m12 17-5-5 5-5" />
  <path d="M22 18v-2a4 4 0 0 0-4-4H7" />
  <path d="m7 17-5-5 5-5" />
  </symbol>
  <symbol id="icono-forward" viewBox="0 0 24 24" fill="none" stroke="currentColor" stroke-width="2" stroke-linecap="round" stroke-linejoin="round">
    <path d="m15 17 5-5-5-5" />
  <path d="M4 18v-2a4 4 0 0 1 4-4h12" />
  </symbol>
  <symbol id="icono-external-link" viewBox="0 0 24 24" fill="none" stroke="currentColor" stroke-width="2" stroke-linecap="round" stroke-linejoin="round">
    <path d="M15 3h6v6" />
  <path d="M10 14 21 3" />
  <path d="M18 13v6a2 2 0 0 1-2 2H5a2 2 0 0 1-2-2V8a2 2 0 0 1 2-2h6" />
  </symbol>
  <symbol id="icono-mic" viewBox="0 0 24 24" fill="none" stroke="currentColor" stroke-width="2" stroke-linecap="round" stroke-linejoin="round">
    <path d="M12 19v3" />
  <path d="M19 10v2a7 7 0 0 1-14 0v-2" />
  <rect x="9" y="2" width="6" height="13" rx="3" />
  </symbol>
  <symbol id="icono-headphones" viewBox="0 0 24 24" fill="none" stroke="currentColor" stroke-width="2" stroke-linecap="round" stroke-linejoin="round">
    <path d="M3 14h3a2 2 0 0 1 2 2v3a2 2 0 0 1-2 2H5a2 2 0 0 1-2-2v-7a9 9 0 0 1 18 0v7a2 2 0 0 1-2 2h-1a2 2 0 0 1-2-2v-3a2 2 0 0 1 2-2h3" />
  </symbol>
  <symbol id="icono-lock-open" viewBox="0 0 24 24" fill="none" stroke="currentColor" stroke-width="2" stroke-linecap="round" stroke-linejoin="round">
    <rect width="18" height="11" x="3" y="11" rx="2" ry="2" />
  <path d="M7 11V7a5 5 0 0 1 9.9-1" />
  </symbol>
  <symbol id="icono-play" viewBox="0 0 24 24" fill="none" stroke="currentColor" stroke-width="2" stroke-linecap="round" stroke-linejoin="round">
    <path d="M5 5a2 2 0 0 1 3.008-1.728l11.997 6.998a2 2 0 0 1 .003 3.458l-12 7A2 2 0 0 1 5 19z" />
  </symbol>
  <symbol id="icono-pause" viewBox="0 0 24 24" fill="none" stroke="currentColor" stroke-width="2" stroke-linecap="round" stroke-linejoin="round">
    <rect x="14" y="3" width="5" height="18" rx="1" />
  <rect x="5" y="3" width="5" height="18" rx="1" />
  </symbol>
  <symbol id="icono-square" viewBox="0 0 24 24" fill="none" stroke="currentColor" stroke-width="2" stroke-linecap="round" stroke-linejoin="round">
    <rect width="18" height="18" x="3" y="3" rx="2" />
  </symbol>
  <symbol id="icono-refresh-cw" viewBox="0 0 24 24" fill="none" stroke="currentColor" stroke-width="2" stroke-linecap="round" stroke-linejoin="round">
    <path d="M3 12a9 9 0 0 1 9-9 9.75 9.75 0 0 1 6.74 2.74L21 8" />
  <path d="M21 3v5h-5" />
  <path d="M21 12a9 9 0 0 1-9 9 9.75 9.75 0 0 1-6.74-2.74L3 16" />
  <path d="M8 16H3v5" />
  </symbol>
  <symbol id="icono-bell" viewBox="0 0 24 24" fill="none" stroke="currentColor" stroke-width="2" stroke-linecap="round" stroke-linejoin="round">
    <path d="M10.268 21a2 2 0 0 0 3.464 0" />
  <path d="M3.262 15.326A1 1 0 0 0 4 17h16a1 1 0 0 0 .74-1.673C19.41 13.956 18 12.499 18 8A6 6 0 0 0 6 8c0 4.499-1.411 5.956-2.738 7.326" />
  </symbol>
<symbol id="icono-calendar-clock" viewBox="0 0 24 24" fill="none" stroke="currentColor" stroke-width="2" stroke-linecap="round" stroke-linejoin="round"><path d="M16 14v2.2l1.6 1" />
  <path d="M16 2v3" />
  <path d="M21 7.338V5a2 2 0 00-2-2H5a2 2 0 00-2 2v14a2 2 0 002 2h2.338" />
  <path d="M3 9h5.859" />
  <path d="M8 2v3" />
  <circle cx="16" cy="16" r="6" /></symbol><symbol id="icono-video" viewBox="0 0 24 24" fill="none" stroke="currentColor" stroke-width="2" stroke-linecap="round" stroke-linejoin="round"><path d="m16 13 5.223 3.482a.5.5 0 0 0 .777-.416V7.87a.5.5 0 0 0-.752-.432L16 10.5" />
  <rect x="2" y="6" width="14" height="12" rx="2" /></symbol></svg>
