<svg xmlns="http://www.w3.org/2000/svg" style="display:none">
  <symbol id="icono-panel-left" viewBox="0 0 24 24" fill="none" stroke="currentColor" stroke-width="2" stroke-linecap="round" stroke-linejoin="round">
    <rect width="18" height="18" x="3" y="3" rx="2" />
  <path d="M9 3v18" />
  </symbol>
  <symbol id="icono-house" viewBox="0 0 24 24" fill="none" stroke="currentColor" stroke-width="2" stroke-linecap="round" stroke-linejoin="round">
    <path d="M15 21v-8a1 1 0 0 0-1-1h-4a1 1 0 0 0-1 1v8" />
  <path d="M3 10a2 2 0 0 1 .709-1.528l7-6a2 2 0 0 1 2.582 0l7 6A2 2 0 0 1 21 10v9a2 2 0 0 1-2 2H5a2 2 0 0 1-2-2z" />
  </symbol>
  <symbol id="icono-list-checks" viewBox="0 0 24 24" fill="none" stroke="currentColor" stroke-width="2" stroke-linecap="round" stroke-linejoin="round">
    <path d="M13 5h8" />
  <path d="M13 12h8" />
  <path d="M13 19h8" />
  <path d="m3 17 2 2 4-4" />
  <path d="m3 7 2 2 4-4" />
  </symbol>
  <symbol id="icono-mail" viewBox="0 0 24 24" fill="none" stroke="currentColor" stroke-width="2" stroke-linecap="round" stroke-linejoin="round">
    <path d="m22 7-8.991 5.727a2 2 0 0 1-2.009 0L2 7" />
  <rect x="2" y="4" width="20" height="16" rx="2" />
  </symbol>
  <symbol id="icono-wrench" viewBox="0 0 24 24" fill="none" stroke="currentColor" stroke-width="2" stroke-linecap="round" stroke-linejoin="round">
    <path d="M14.7 6.3a1 1 0 0 0 0 1.4l1.6 1.6a1 1 0 0 0 1.4 0l3.106-3.105c.32-.322.863-.22.983.218a6 6 0 0 1-8.259 7.057l-7.91 7.91a1 1 0 0 1-2.999-3l7.91-7.91a6 6 0 0 1 7.057-8.259c.438.12.54.662.219.984z" />
  </symbol>
  <symbol id="icono-ticket" viewBox="0 0 24 24" fill="none" stroke="currentColor" stroke-width="2" stroke-linecap="round" stroke-linejoin="round">
    <path d="M2 9a3 3 0 0 1 0 6v2a2 2 0 0 0 2 2h16a2 2 0 0 0 2-2v-2a3 3 0 0 1 0-6V7a2 2 0 0 0-2-2H4a2 2 0 0 0-2 2Z" />
  <path d="M13 5v2" />
  <path d="M13 17v2" />
  <path d="M13 11v2" />
  </symbol>
  <symbol id="icono-clock" viewBox="0 0 24 24" fill="none" stroke="currentColor" stroke-width="2" stroke-linecap="round" stroke-linejoin="round">
    <circle cx="12" cy="12" r="10" />
  <path d="M12 6v6l4 2" />
  </symbol>
  <symbol id="icono-history" viewBox="0 0 24 24" fill="none" stroke="currentColor" stroke-width="2" stroke-linecap="round" stroke-linejoin="round">
    <path d="M12 6v6l1.56.78" />
  <path d="M13.227 21.925a10 10 0 1 1 8.767-9.588" />
  <path d="m14 18 4-4 4 4" />
  <path d="M18 22v-8" />
  </symbol>
  <symbol id="icono-bot" viewBox="0 0 24 24" fill="none" stroke="currentColor" stroke-width="2" stroke-linecap="round" stroke-linejoin="round">
    <path d="M12 8V4H8" />
  <rect width="16" height="12" x="4" y="8" rx="2" />
  <path d="M2 14h2" />
  <path d="M20 14h2" />
  <path d="M15 13v2" />
  <path d="M9 13v2" />
  </symbol>
  <symbol id="icono-bar-chart-3" viewBox="0 0 24 24" fill="none" stroke="currentColor" stroke-width="2" stroke-linecap="round" stroke-linejoin="round">
    <path d="M3 3v16a2 2 0 0 0 2 2h16" />
  <path d="M18 17V9" />
  <path d="M13 17V5" />
  <path d="M8 17v-3" />
  </symbol>
  <symbol id="icono-trash-2" viewBox="0 0 24 24" fill="none" stroke="currentColor" stroke-width="2" stroke-linecap="round" stroke-linejoin="round">
    <path d="M10 11v6" />
  <path d="M14 11v6" />
  <path d="M19 6v14a2 2 0 0 1-2 2H7a2 2 0 0 1-2-2V6" />
  <path d="M3 6h18" />
  <path d="M8 6V4a2 2 0 0 1 2-2h4a2 2 0 0 1 2 2v2" />
  </symbol>
  <symbol id="icono-upload" viewBox="0 0 24 24" fill="none" stroke="currentColor" stroke-width="2" stroke-linecap="round" stroke-linejoin="round">
    <path d="M12 3v12" />
  <path d="m17 8-5-5-5 5" />
  <path d="M21 15v4a2 2 0 0 1-2 2H5a2 2 0 0 1-2-2v-4" />
  </symbol>
  <symbol id="icono-shield" viewBox="0 0 24 24" fill="none" stroke="currentColor" stroke-width="2" stroke-linecap="round" stroke-linejoin="round">
    <path d="M20 13c0 5-3.5 7.5-7.66 8.95a1 1 0 0 1-.67-.01C7.5 20.5 4 18 4 13V6a1 1 0 0 1 1-1c2 0 4.5-1.2 6.24-2.72a1.17 1.17 0 0 1 1.52 0C14.51 3.81 17 5 19 5a1 1 0 0 1 1 1z" />
  </symbol>
  <symbol id="icono-camera" viewBox="0 0 24 24" fill="none" stroke="currentColor" stroke-width="2" stroke-linecap="round" stroke-linejoin="round">
    <path d="M13.997 4a2 2 0 0 1 1.76 1.05l.486.9A2 2 0 0 0 18.003 7H20a2 2 0 0 1 2 2v9a2 2 0 0 1-2 2H4a2 2 0 0 1-2-2V9a2 2 0 0 1 2-2h1.997a2 2 0 0 0 1.759-1.048l.489-.904A2 2 0 0 1 10.004 4z" />
  <circle cx="12" cy="13" r="3" />
  </symbol>
  <symbol id="icono-monitor" viewBox="0 0 24 24" fill="none" stroke="currentColor" stroke-width="2" stroke-linecap="round" stroke-linejoin="round">
    <rect width="20" height="14" x="2" y="3" rx="2" />
  <line x1="8" x2="16" y1="21" y2="21" />
  <line x1="12" x2="12" y1="17" y2="21" />
  </symbol>
  <symbol id="icono-sun" viewBox="0 0 24 24" fill="none" stroke="currentColor" stroke-width="2" stroke-linecap="round" stroke-linejoin="round">
    <circle cx="12" cy="12" r="4" />
  <path d="M12 2v2" />
  <path d="M12 20v2" />
  <path d="m4.93 4.93 1.41 1.41" />
  <path d="m17.66 17.66 1.41 1.41" />
  <path d="M2 12h2" />
  <path d="M20 12h2" />
  <path d="m6.34 17.66-1.41 1.41" />
  <path d="m19.07 4.93-1.41 1.41" />
  </symbol>
  <symbol id="icono-moon" viewBox="0 0 24 24" fill="none" stroke="currentColor" stroke-width="2" stroke-linecap="round" stroke-linejoin="round">
    <path d="M20.985 12.486a9 9 0 1 1-9.473-9.472c.405-.022.617.46.402.803a6 6 0 0 0 8.268 8.268c.344-.215.825-.004.803.401" />
  </symbol>
  <symbol id="icono-layout-list" viewBox="0 0 24 24" fill="none" stroke="currentColor" stroke-width="2" stroke-linecap="round" stroke-linejoin="round">
    <rect width="7" height="7" x="3" y="3" rx="1" />
  <rect width="7" height="7" x="3" y="14" rx="1" />
  <path d="M14 4h7" />
  <path d="M14 9h7" />
  <path d="M14 15h7" />
  <path d="M14 20h7" />
  </symbol>
  <symbol id="icono-smartphone" viewBox="0 0 24 24" fill="none" stroke="currentColor" stroke-width="2" stroke-linecap="round" stroke-linejoin="round">
    <rect width="14" height="20" x="5" y="2" rx="2" ry="2" />
  <path d="M12 18h.01" />
  </symbol>
  <symbol id="icono-book-open" viewBox="0 0 24 24" fill="none" stroke="currentColor" stroke-width="2" stroke-linecap="round" stroke-linejoin="round">
    <path d="M12 5v16" />
  <path d="M20.001 19A2 2 0 0022 17V5a2 2 0 00-1.999-2L16 3.002A5 5 0 0012 5a5 5 0 00-4-2H4a2 2 0 00-2 2v12a2 2 0 001.999 2H8a5 5 0 014 2 5 5 0 014-2z" />
  </symbol>
  <symbol id="icono-log-out" viewBox="0 0 24 24" fill="none" stroke="currentColor" stroke-width="2" stroke-linecap="round" stroke-linejoin="round">
    <path d="m16 17 5-5-5-5" />
  <path d="M21 12H9" />
  <path d="M9 21H5a2 2 0 0 1-2-2V5a2 2 0 0 1 2-2h4" />
  </symbol>
  <symbol id="icono-settings" viewBox="0 0 24 24" fill="none" stroke="currentColor" stroke-width="2" stroke-linecap="round" stroke-linejoin="round">
    <path d="M9.671 4.136a2.34 2.34 0 0 1 4.659 0 2.34 2.34 0 0 0 3.319 1.915 2.34 2.34 0 0 1 2.33 4.033 2.34 2.34 0 0 0 0 3.831 2.34 2.34 0 0 1-2.33 4.033 2.34 2.34 0 0 0-3.319 1.915 2.34 2.34 0 0 1-4.659 0 2.34 2.34 0 0 0-3.32-1.915 2.34 2.34 0 0 1-2.33-4.033 2.34 2.34 0 0 0 0-3.831A2.34 2.34 0 0 1 6.35 6.051a2.34 2.34 0 0 0 3.319-1.915" />
  <circle cx="12" cy="12" r="3" />
  </symbol>
  <symbol id="icono-search" viewBox="0 0 24 24" fill="none" stroke="currentColor" stroke-width="2" stroke-linecap="round" stroke-linejoin="round">
    <path d="m21 21-4.34-4.34" />
  <circle cx="11" cy="11" r="8" />
  </symbol>
  <symbol id="icono-x" viewBox="0 0 24 24" fill="none" stroke="currentColor" stroke-width="2" stroke-linecap="round" stroke-linejoin="round">
    <path d="M18 6 6 18" />
  <path d="m6 6 12 12" />
  </symbol>
</svg>
